<?xml version="1.0" encoding="UTF-8"?>
<svg width="55px" height="56px" viewBox="0 0 55 56" version="1.1" xmlns="http://www.w3.org/2000/svg" xmlns:xlink="http://www.w3.org/1999/xlink">
    <!-- Generator: Sketch 52.1 (67048) - http://www.bohemiancoding.com/sketch -->
    <title>logo</title>
    <desc>Created with Sketch.</desc>
    <g id="Welcome" stroke="none" stroke-width="1" fill="none" fill-rule="evenodd">
        <g id="architecture-website-concept" transform="translate(-775.000000, -224.000000)" fill="#000000">
            <g id="header" transform="translate(280.000000, 224.000000)">
                <path d="M528,1.208 C527.928,0.92 527.784,0.704 527.568,0.632 C527.496,0.632 527.424,0.632 527.424,0.56 L527.28,0.56 C527.064,0.56 526.92,0.632 526.776,0.776 C526.704,0.848 526.632,0.92 526.632,0.992 L526.56,1.064 L512.808,35.264 L506.256,31.736 L512.664,15.752 C512.808,15.392 512.592,14.96 512.232,14.816 C511.872,14.672 511.44,14.816 511.296,15.176 L495.312,54.992 C495.24,55.136 495.24,55.28 495.312,55.496 L495.384,55.64 C495.456,55.784 495.672,55.928 495.816,56 L495.96,56 C496.104,56 496.248,56 496.32,55.928 L521.88,41.672 L548.736,55.928 C548.808,56 548.952,56 549.096,56 L549.24,56 C549.384,55.928 549.6,55.784 549.672,55.64 L549.744,55.496 C549.816,55.28 549.816,55.136 549.744,54.992 L528,1.208 Z M538.368,30.8 L521.808,40.016 L514.032,35.912 L527.208,3.296 L538.368,30.8 Z M538.944,32.168 L547.656,53.696 L523.392,40.808 L538.944,32.168 Z M520.368,40.88 L497.472,53.624 L505.752,33.104 L512.736,36.776 C512.736,36.848 512.808,36.92 512.88,36.92 L520.368,40.88 Z" id="logo"></path>
            </g>
        </g>
    </g>
</svg>