<?xml version="1.0" encoding="UTF-8"?>
<svg width="17px" height="17px" viewBox="0 0 17 17" version="1.1" xmlns="http://www.w3.org/2000/svg" xmlns:xlink="http://www.w3.org/1999/xlink">
    <!-- Generator: Sketch 52.1 (67048) - http://www.bohemiancoding.com/sketch -->
    <title>search</title>
    <desc>Created with Sketch.</desc>
    <g id="Welcome" stroke="none" stroke-width="1" fill="none" fill-rule="evenodd">
        <g id="architecture-website-concept" transform="translate(-1305.000000, -230.000000)" fill="#242E2D">
            <g id="header" transform="translate(280.000000, 224.000000)">
                <g id="search" transform="translate(964.000000, 4.000000)">
                    <g transform="translate(61.000000, 2.000000)">
                        <path d="M10.1428571,13.9090909 C6.35576172,13.9090909 3.28571429,10.7954349 3.28571429,6.95454545 C3.28571429,3.11365606 6.35576172,0 10.1428571,0 C13.9299526,0 17,3.11365606 17,6.95454545 C17,10.7954349 13.9299526,13.9090909 10.1428571,13.9090909 Z M10.1428571,11.5909091 C12.6675874,11.5909091 14.7142857,9.51513839 14.7142857,6.95454545 C14.7142857,4.39395252 12.6675874,2.31818182 10.1428571,2.31818182 C7.61812686,2.31818182 5.57142857,4.39395252 5.57142857,6.95454545 C5.57142857,9.51513839 7.61812686,11.5909091 10.1428571,11.5909091 Z" id="Oval-2"></path>
                        <rect id="Rectangle-5" transform="translate(4.159199, 13.136364) rotate(-45.000000) translate(-4.159199, -13.136364) " x="0.349675061" y="11.9772727" width="7.61904762" height="2.31818182"></rect>
                    </g>
                </g>
            </g>
        </g>
    </g>
</svg>